# xmcd CD database file
#
# Track frame offsets:
#	150
#	12662
#	19475
#	32660
#	43755
#	56095
#	65847
#	76150
#	87387
#	96432
#	107975
#	120387
#	130592
#	140310
#	152685
#	163052
#	174467
#	183657
#	200825
#	212485
#	224367
#	235485
#	245942
#	256382
#	271592
#
# Disc length: 3755 seconds
#
# Revision: 2
# Processed by: cddbd v1.5.2PL0 Copyright (c) Steve Scherf et al.
# Submitted via: CDex 1.70beta2
#
DISCID=770ea919
DTITLE=Compilation - Mega Country
DYEAR=1999
DGENRE=Country
TTITLE0=Lynn Anderson - Stand By Your Man
TTITLE1=Waylon Jennings - It's So Easy
TTITLE2=Kenny Rogers - Ruby, Don't Take Your Love To Town
TTITLE3=Roger Miller - King Of The Road
TTITLE4=Johnny Cash - I Walk The Line
TTITLE5=Dave Dudley - Six Days On The Road
TTITLE6=Dolly Parton - Release Me
TTITLE7=Don Gibson - Oh Lonesome Me
TTITLE8=Jerry Lee Lewis - Jambalaya
TTITLE9=Patsy Cline - Walking After Midnight
TTITLE10=Frankie Laine - High Noon
TTITLE11=Porter Wagoner - The Green Green Grass Of Home
TTITLE12=Merle Travis - Sixteen Tons
TTITLE13=Willie Nelson - The Shelter Of Your Arms
TTITLE14=George Jones - Walk Through This World With Me
TTITLE15=Kitty Wells - It Wasn't God Who Made Honky Tonk Angels
TTITLE16=Webb Pierce - Honky Tonk Song
TTITLE17=Townes Van Zandt - If I Needed You
TTITLE18=Freddy Fender - Before The Next Teardrop Falls
TTITLE19=Johnny Paycheck - Take This Job An Shove It
TTITLE20=Carl Smith - Hey Joe!
TTITLE21=Faron Young - Live Fast, Love Hard, Die Young
TTITLE22=Ferlin Husky - Wings Of A Dove
TTITLE23=Lee Greenwood - Going, Going, Gone
TTITLE24=Mickey Gilley - Lonely Wine
EXTD=YEAR: 1999
EXTT0=
EXTT1=
EXTT2=
EXTT3=
EXTT4=
EXTT5=
EXTT6=
EXTT7=
EXTT8=
EXTT9=
EXTT10=
EXTT11=
EXTT12=
EXTT13=
EXTT14=
EXTT15=
EXTT16=
EXTT17=
EXTT18=
EXTT19=
EXTT20=
EXTT21=
EXTT22=
EXTT23=
EXTT24=
PLAYORDER=
